G04 #@! TF.FileFunction,Copper,L1,Top,Signal*
%FSLAX46Y46*%
G04 Gerber Fmt 4.6, Leading zero omitted, Abs format (unit mm)*
G04 Created by KiCad (PCBNEW 4.0.2-4+6225~38~ubuntu14.04.1-stable) date Thu 30 Mar 2017 05:43:38 PM CEST*
%MOMM*%
G01*
G04 APERTURE LIST*
%ADD10C,0.100000*%
%ADD11R,1.250000X1.500000*%
%ADD12R,1.200000X1.200000*%
%ADD13R,1.700000X1.700000*%
%ADD14O,1.700000X1.700000*%
%ADD15R,1.500000X1.300000*%
%ADD16R,0.600000X1.000000*%
%ADD17C,1.500000*%
%ADD18C,0.685800*%
%ADD19C,1.219200*%
G04 APERTURE END LIST*
D10*
D11*
X175006000Y-54376000D03*
X175006000Y-56876000D03*
X183007000Y-56876000D03*
X183007000Y-54376000D03*
D12*
X181821000Y-63246000D03*
X179621000Y-63246000D03*
D13*
X171196000Y-55626000D03*
D14*
X171196000Y-58166000D03*
D13*
X187706000Y-58166000D03*
D14*
X187706000Y-55626000D03*
D15*
X179371000Y-61087000D03*
X182071000Y-61087000D03*
D16*
X178120000Y-56976000D03*
X180020000Y-56976000D03*
X179070000Y-54276000D03*
D17*
X173228000Y-52197000D03*
X187706000Y-61341000D03*
D13*
X175768000Y-60960000D03*
D18*
X182753000Y-59436000D03*
D19*
X175006000Y-54376000D02*
X175106000Y-54276000D01*
X175106000Y-54276000D02*
X179070000Y-54276000D01*
X173228000Y-52197000D02*
X175006000Y-53975000D01*
X175006000Y-53975000D02*
X175006000Y-54376000D01*
X171196000Y-55626000D02*
X172446000Y-54376000D01*
X172446000Y-54376000D02*
X175006000Y-54376000D01*
X175006000Y-56876000D02*
X175768000Y-57638000D01*
X175768000Y-57638000D02*
X175768000Y-60960000D01*
X175006000Y-56876000D02*
X173716000Y-58166000D01*
X173716000Y-58166000D02*
X171196000Y-58166000D01*
X182071000Y-61087000D02*
X182071000Y-60118000D01*
X182071000Y-60118000D02*
X182753000Y-59436000D01*
X183007000Y-54376000D02*
X186456000Y-54376000D01*
X186456000Y-54376000D02*
X187706000Y-55626000D01*
X175006000Y-56876000D02*
X178020000Y-56876000D01*
X178020000Y-56876000D02*
X178120000Y-56976000D01*
X187706000Y-61341000D02*
X187706000Y-58166000D01*
X181821000Y-63246000D02*
X185801000Y-63246000D01*
X185801000Y-63246000D02*
X187706000Y-61341000D01*
X180020000Y-56976000D02*
X180120000Y-56876000D01*
X180120000Y-56876000D02*
X183007000Y-56876000D01*
X187706000Y-58166000D02*
X186416000Y-56876000D01*
X186416000Y-56876000D02*
X183007000Y-56876000D01*
X179371000Y-61087000D02*
X179371000Y-62996000D01*
X179371000Y-62996000D02*
X179621000Y-63246000D01*
M02*
